TITLE ""
FILE "Disc2Track48.mp3" MP3
  TRACK 01 AUDIO
    TITLE "Disc2Track48_01"
    INDEX 01 00:00:00
  TRACK 02 AUDIO
    TITLE "Disc2Track48_02"
    INDEX 01 00:01:02
  TRACK 03 AUDIO
    TITLE "Disc2Track48_03"
    INDEX 01 00:02:29
  TRACK 04 AUDIO
    TITLE "Disc2Track48_04"
    INDEX 01 00:03:44
  TRACK 05 AUDIO
    TITLE "Disc2Track48_05"
    INDEX 01 00:08:37
  TRACK 06 AUDIO
    TITLE "Disc2Track48_06"
    INDEX 01 00:08:73
  TRACK 07 AUDIO
    TITLE "Disc2Track48_07"
    INDEX 01 00:10:19
  TRACK 08 AUDIO
    TITLE "Disc2Track48_08"
    INDEX 01 00:11:18
  TRACK 09 AUDIO
    TITLE "Disc2Track48_09"
    INDEX 01 00:12:45
  TRACK 10 AUDIO
    TITLE "Disc2Track48_10"
    INDEX 01 00:13:03
  TRACK 11 AUDIO
    TITLE "Disc2Track48_11"
    INDEX 01 00:14:20
  TRACK 12 AUDIO
    TITLE "Disc2Track48_12"
    INDEX 01 00:16:37
  TRACK 13 AUDIO
    TITLE "Disc2Track48_13"
    INDEX 01 00:17:52
  TRACK 14 AUDIO
    TITLE "Disc2Track48_14"
    INDEX 01 00:20:64
  TRACK 15 AUDIO
    TITLE "Disc2Track48_15"
    INDEX 01 00:21:20
  TRACK 16 AUDIO
    TITLE "Disc2Track48_16"
    INDEX 01 00:22:47
  TRACK 17 AUDIO
    TITLE "Disc2Track48_17"
    INDEX 01 00:23:64
  TRACK 18 AUDIO
    TITLE "Disc2Track48_18"
    INDEX 01 00:25:18
  TRACK 19 AUDIO
    TITLE "Disc2Track48_19"
    INDEX 01 00:25:59
  TRACK 20 AUDIO
    TITLE "Disc2Track48_20"
    INDEX 01 00:27:09
  TRACK 21 AUDIO
    TITLE "Disc2Track48_21"
    INDEX 01 00:30:04
  TRACK 22 AUDIO
    TITLE "Disc2Track48_22"
    INDEX 01 00:31:28
  TRACK 23 AUDIO
    TITLE "Disc2Track48_23"
    INDEX 01 00:36:10
  TRACK 24 AUDIO
    TITLE "Disc2Track48_24"
    INDEX 01 00:36:41
  TRACK 25 AUDIO
    TITLE "Disc2Track48_25"
    INDEX 01 00:37:66
  TRACK 26 AUDIO
    TITLE "Disc2Track48_26"
    INDEX 01 00:39:61
  TRACK 27 AUDIO
    TITLE "Disc2Track48_27"
    INDEX 01 00:41:11
  TRACK 28 AUDIO
    TITLE "Disc2Track48_28"
    INDEX 01 00:41:50
  TRACK 29 AUDIO
    TITLE "Disc2Track48_29"
    INDEX 01 00:42:56
  TRACK 30 AUDIO
    TITLE "Disc2Track48_30"
    INDEX 01 00:49:19
  TRACK 31 AUDIO
    TITLE "Disc2Track48_31"
    INDEX 01 00:50:22
  TRACK 32 AUDIO
    TITLE "Disc2Track48_32"
    INDEX 01 00:54:18
  TRACK 33 AUDIO
    TITLE "Disc2Track48_33"
    INDEX 01 00:54:49
  TRACK 34 AUDIO
    TITLE "Disc2Track48_34"
    INDEX 01 00:55:68
  TRACK 35 AUDIO
    TITLE "Disc2Track48_35"
    INDEX 01 00:58:55
  TRACK 36 AUDIO
    TITLE "Disc2Track48_36"
    INDEX 01 00:59:72
  TRACK 37 AUDIO
    TITLE "Disc2Track48_37"
    INDEX 01 01:02:17
  TRACK 38 AUDIO
    TITLE "Disc2Track48_38"
    INDEX 01 01:02:49
  TRACK 39 AUDIO
    TITLE "Disc2Track48_39"
    INDEX 01 01:03:72
  TRACK 40 AUDIO
    TITLE "Disc2Track48_40"
    INDEX 01 01:06:19
  TRACK 41 AUDIO
    TITLE "Disc2Track48_41"
    INDEX 01 01:07:38
  TRACK 42 AUDIO
    TITLE "Disc2Track48_42"
    INDEX 01 01:12:35
  TRACK 43 AUDIO
    TITLE "Disc2Track48_43"
    INDEX 01 01:12:65
  TRACK 44 AUDIO
    TITLE "Disc2Track48_44"
    INDEX 01 01:14:13
  TRACK 45 AUDIO
    TITLE "Disc2Track48_45"
    INDEX 01 01:16:35
  TRACK 46 AUDIO
    TITLE "Disc2Track48_46"
    INDEX 01 01:17:56
  TRACK 47 AUDIO
    TITLE "Disc2Track48_47"
    INDEX 01 01:24:11
  TRACK 48 AUDIO
    TITLE "Disc2Track48_48"
    INDEX 01 01:24:42
  TRACK 49 AUDIO
    TITLE "Disc2Track48_49"
    INDEX 01 01:25:58
  TRACK 50 AUDIO
    TITLE "Disc2Track48_50"
    INDEX 01 01:27:00
  TRACK 51 AUDIO
    TITLE "Disc2Track48_51"
    INDEX 01 01:28:13
  TRACK 52 AUDIO
    TITLE "Disc2Track48_52"
    INDEX 01 01:31:44
  TRACK 53 AUDIO
    TITLE "Disc2Track48_53"
    INDEX 01 01:31:74
  TRACK 54 AUDIO
    TITLE "Disc2Track48_54"
    INDEX 01 01:33:33
  TRACK 55 AUDIO
    TITLE "Disc2Track48_55"
    INDEX 01 01:34:29
  TRACK 56 AUDIO
    TITLE "Disc2Track48_56"
    INDEX 01 01:35:64
